<?xml version="1.0" standalone="no"?><!DOCTYPE svg PUBLIC "-//W3C//DTD SVG 1.1//EN" "http://www.w3.org/Graphics/SVG/1.1/DTD/svg11.dtd"><svg t="1669888199687" class="icon" viewBox="0 0 1024 1024" version="1.1" xmlns="http://www.w3.org/2000/svg" p-id="10162" xmlns:xlink="http://www.w3.org/1999/xlink" width="25" height="25"><path d="M630.272 701.952c0 20.992-16.896 37.888-37.888 37.888h-497.152c-20.992 0-37.888-16.896-37.888-37.888v-442.368l193.024-178.688h342.528c20.992 0 37.888 16.896 37.888 37.888V701.952z" fill="#1C767E" p-id="10163"></path><path d="M245.76 75.776v178.176h-192.512z" fill="#55C1CB" p-id="10164"></path><path d="M539.136 660.992H194.56c-4.608 0-8.192-3.584-8.192-8.192V358.4c0-4.608 3.584-8.192 8.192-8.192h344.576c4.608 0 8.192 3.584 8.192 8.192v294.4c0 4.608-3.584 8.192-8.192 8.192z m-336.384-16.384h328.192v-278.016h-328.192v278.016z" fill="#15595F" p-id="10165"></path><path d="M277.504 660.992c-4.608 0-8.192-3.584-8.192-8.192V358.4c0-4.608 3.584-8.192 8.192-8.192 4.608 0 8.192 3.584 8.192 8.192v294.4c0 4.608-3.584 8.192-8.192 8.192z" fill="#15595F" p-id="10166"></path><path d="M539.136 441.344H194.56c-4.608 0-8.192-3.584-8.192-8.192 0-4.608 3.584-8.192 8.192-8.192h344.576c4.608 0 8.192 3.584 8.192 8.192 0 4.608-3.584 8.192-8.192 8.192zM539.136 513.536H194.56c-4.608 0-8.192-3.584-8.192-8.192 0-4.608 3.584-8.192 8.192-8.192h344.576c4.608 0 8.192 3.584 8.192 8.192 0 4.608-3.584 8.192-8.192 8.192zM539.136 583.68H194.56c-4.608 0-8.192-3.584-8.192-8.192 0-4.608 3.584-8.192 8.192-8.192h344.576c4.608 0 8.192 3.584 8.192 8.192 0 4.608-3.584 8.192-8.192 8.192z" fill="#15595F" p-id="10167"></path><path d="M970.752 908.288c0 22.016-17.92 39.936-39.936 39.936H413.184c-22.016 0-39.936-17.92-39.936-39.936v-460.8L574.464 261.12h356.864c22.016 0 39.936 17.92 39.936 39.936V908.288z" fill="#F2F2F2" p-id="10168"></path><path d="M573.952 261.12v185.856h-200.704z" fill="#CCCCCC" p-id="10169"></path><path d="M842.752 647.68h-303.104c-5.12 0-9.216-5.12-9.216-11.264 0-6.144 4.096-11.264 9.216-11.264h303.104c5.12 0 9.216 5.12 9.216 11.264 0 6.144-4.096 11.264-9.216 11.264zM842.752 737.28h-303.104c-5.12 0-9.216-5.12-9.216-11.264s4.096-11.264 9.216-11.264h303.104c5.12 0 9.216 5.12 9.216 11.264s-4.096 11.264-9.216 11.264zM691.2 826.88h-151.552c-5.12 0-9.216-5.12-9.216-11.264s4.096-11.264 9.216-11.264H691.2c5.12 0 9.216 5.12 9.216 11.264s-4.096 11.264-9.216 11.264z" fill="#B3B3B3" p-id="10170"></path><path d="M845.312 554.496h-303.104c-5.12 0-9.216-5.12-9.216-11.264 0-6.144 4.096-11.264 9.216-11.264h303.104c5.12 0 9.216 5.12 9.216 11.264 0 6.144-4.096 11.264-9.216 11.264z" fill="#B3B3B3" p-id="10171"></path></svg>